# xmcd
#
# Track frame offsets:
#	150
#	13078
#	28410
#	36495
#	47049
#	57559
#	66313
#	79554
#	91136
#	98344
#	112590
#	125246
#	132207
#	143481
#	158452
#	168989
#	176257
#	184527
#	194992
#	202186
#	212533
#	221698
#	230715
#	238103
#	247314
#
# Disc length: 3451 seconds
# Revision: 0
# Processed by: cddbd v1.5.2PL0 Copyright (c) Steve Scherf et al.
# Submitted via: dBpowerAMP V12.0
#
DISCID=6b0d7919
DTITLE=Various Artist - Banjo Gathering
DYEAR=2007
DGENRE=Country
TTITLE0=Brad Leftwich - Hook and Line
TTITLE1=Gordy Hinners - Tempe
TTITLE2=John Herrmann - Chilly Winds
TTITLE3=David Winston - Indian Squaw
TTITLE4=John McCutcheon - Mole in the Ground
TTITLE5=Scott Ainslie - Walkin' in the Parlor
TTITLE6=Bob Thornburg - Hand on the Plough
TTITLE7=Tom Sauber - Piney Ridge
TTITLE8=Gail Gillespie - The Little Doctor who Fell in the Well
TTITLE9=Bruce Molsky - Uncle Norm's Tune
TTITLE10=Steve Baughman - Protect the Innocent
TTITLE11=Brent Riggs - Sally Ann
TTITLE12=Mike Seeger - French Waltz
TTITLE13=Cathy Fink - New River Train
TTITLE14=Dan Gellert - Sally Gooden
TTITLE15=Phil Jamison - Mississippi Sawyer
TTITLE16=Pete Sutherland - Jenny Get Around
TTITLE17=Rafe Stefanini - The Boatman
TTITLE18=Joe Newberry - Lost Gander
TTITLE19=Scott Ainslie - Sugar Babe
TTITLE20=Terri McMurray - Sail Away Ladies
TTITLE21=Paul Brown - Old Sally Brown
TTITLE22=Alice Gerrard - Lonesome John on Clinch Mountain
TTITLE23=John Cohen - Last Chance
TTITLE24=Bob Thornburg - Sandy Boys
EXTD=
EXTT0=
EXTT1=
EXTT2=
EXTT3=
EXTT4=
EXTT5=
EXTT6=
EXTT7=
EXTT8=
EXTT9=
EXTT10=
EXTT11=
EXTT12=
EXTT13=
EXTT14=
EXTT15=
EXTT16=
EXTT17=
EXTT18=
EXTT19=
EXTT20=
EXTT21=
EXTT22=
EXTT23=
EXTT24=
PLAYORDER=
